<?xml version="1.0" encoding="utf-8"?>
<!-- Generator: Adobe Illustrator 25.3.1, SVG Export Plug-In . SVG Version: 6.00 Build 0)  -->
<svg version="1.1" id="Layer_1" xmlns="http://www.w3.org/2000/svg" xmlns:xlink="http://www.w3.org/1999/xlink" x="0px" y="0px"
	 viewBox="0 0 129.8 56.5" style="enable-background:new 0 0 109.8 56.5;" xml:space="preserve">
<style type="text/css">
	.st0{fill:#FFFFFF;}
	.st1{fill:#F9032F;}
</style>
<g>
	<g>
		<path class="st0" d="M10.3,34c0,1.9-0.7,3.4-2,4.7c-1.3,1.3-2.9,1.9-4.7,1.9c-1.1,0-1.9-0.1-2.6-0.3l0.6-3.9
			c0.5,0.1,0.9,0.1,1.2,0.1c0.2,0,0.5,0,0.9,0c0.7,0,1.3-0.3,1.7-0.7c0.5-0.4,0.7-1,0.7-1.7V12.4h4.1V34z"/>
		<path class="st0" d="M18.3,40.4H14v-28h4.2V40.4z"/>
		<path class="st0" d="M28.7,40.7c-1.9,0-3.4-0.6-4.7-1.9C22.7,37.5,22,35.9,22,34V12.4h4.1V34c0,0.7,0.2,1.2,0.7,1.7
			c0.5,0.5,1.1,0.7,1.7,0.7c0.7,0,1.2-0.2,1.7-0.7c0.5-0.5,0.7-1,0.7-1.7V12.4h4.4V34c0,1.9-0.7,3.5-2,4.7
			C32.1,40.1,30.5,40.7,28.7,40.7z"/>
		<path class="st0" d="M50.5,34c0,1.9-0.7,3.4-2,4.7c-1.3,1.3-2.9,1.9-4.7,1.9c-1.1,0-1.9-0.1-2.6-0.3l0.6-3.9
			c0.5,0.1,0.9,0.1,1.2,0.1c0.2,0,0.5,0,0.9,0c0.7,0,1.3-0.3,1.7-0.7c0.5-0.4,0.7-1,0.7-1.7V12.4h4.1V34z"/>
		<path class="st0" d="M58.5,40.4h-4.2v-28h4.2V40.4z"/>
		<path class="st1" d="M66.4,16.6h-4.5v-4.2h13.2v4.2h-4.5v23.8h-4.2V16.6z"/>
		<path class="st1" d="M91.9,33.4c0,2-0.5,3.6-1.5,5c-0.7,0.9-1.7,1.6-2.9,2c-0.7,0.2-1.5,0.3-2.3,0.3c-1.7,0-3-0.4-4.1-1.2
			c-0.9-0.7-1.6-1.6-2.2-2.7c-0.5-1.2-0.8-2.5-0.9-4l4-0.3c0.2,1.6,0.6,2.8,1.3,3.5c0.5,0.6,1.1,0.8,1.7,0.8c0.9,0,1.7-0.5,2.2-1.4
			c0.3-0.4,0.4-1.1,0.4-1.9c0-1.2-0.5-2.3-1.6-3.5c-0.8-0.8-2.1-2-3.8-3.6c-1.4-1.4-2.4-2.6-3-3.6c-0.6-1.2-0.9-2.5-0.9-3.9
			c0-2.5,0.9-4.5,2.6-5.8c1.1-0.8,2.4-1.2,3.9-1.2c1.5,0,2.8,0.3,3.9,1c0.8,0.5,1.5,1.3,2,2.2c0.5,0.9,0.8,2,0.9,3.2l-4,0.7
			c-0.1-1.1-0.4-2-1-2.7c-0.4-0.5-0.9-0.7-1.7-0.7c-0.8,0-1.4,0.3-1.8,1c-0.3,0.6-0.5,1.2-0.5,2.1c0,1.3,0.6,2.6,1.7,3.9
			c0.4,0.5,1,1.1,1.9,1.8c1,0.8,1.6,1.4,1.9,1.7c1,1,1.8,2.1,2.4,3.1c0.3,0.5,0.5,0.9,0.6,1.3C91.7,31.7,91.9,32.6,91.9,33.4z"/>
		<path class="st0" d="M102.1,40.7c-1.9,0-3.4-0.6-4.7-1.9c-1.3-1.3-1.9-2.9-1.9-4.7V12.4h4.1V34c0,0.7,0.2,1.2,0.7,1.7
			c0.5,0.5,1.1,0.7,1.7,0.7c0.7,0,1.2-0.2,1.7-0.7c0.5-0.5,0.7-1,0.7-1.7V12.4h4.4V34c0,1.9-0.7,3.5-2,4.7
			C105.5,40.1,103.9,40.7,102.1,40.7z"/>
	</g>
	<g>
		<rect x="61.5" y="43.2" class="st1" width="29.7" height="8.3"/>
		<g>
			<path class="st0" d="M108.8,51.7H1V43h107.8V51.7z M1.4,51.3h107v-7.9H1.4V51.3z"/>
		</g>
	</g>
	<g>
		<path class="st1" d="M6.1,8.3V4.8h1.6c0.4,0,0.8,0.1,1.1,0.2c0.3,0.1,0.5,0.2,0.6,0.4c0.1,0.1,0.1,0.2,0.1,0.4
			c0,0.2-0.1,0.4-0.4,0.6C9.1,6.4,9,6.5,8.8,6.5c0.2,0,0.4,0.1,0.6,0.3C9.5,6.9,9.6,7,9.7,7.1c0,0.1,0,0.2,0,0.2
			c0,0.2-0.1,0.4-0.3,0.6C9.3,8,9.1,8.1,8.9,8.2C8.6,8.3,8.4,8.3,8.1,8.3H6.1z M7.3,6.3h0.4C8,6.3,8.3,6.2,8.4,6
			c0-0.1,0.1-0.1,0.1-0.2c0-0.1-0.1-0.3-0.2-0.3C8.1,5.4,7.9,5.4,7.7,5.4H7.3V6.3z M7.3,7.8h0.4c0.4,0,0.6-0.1,0.7-0.3
			c0-0.1,0.1-0.1,0.1-0.2c0-0.2-0.1-0.3-0.2-0.4C8.2,6.8,8,6.8,7.7,6.8H7.3V7.8z"/>
		<path class="st1" d="M21,4.8c0.6,0,1,0.1,1.3,0.2c0.2,0.1,0.4,0.3,0.4,0.6v0.5c0,0.2-0.2,0.5-0.6,0.6l0.8,1.5h-1.1L21.1,7
			C21,7,21,7,21,7h-0.6v1.3h-1.1V4.8H21z M21.6,5.7c0-0.2-0.2-0.3-0.6-0.3h-0.6v1.1H21c0.2,0,0.3,0,0.4-0.1c0.1-0.1,0.2-0.1,0.2-0.2
			V5.7z"/>
		<path class="st1" d="M33.7,7.5l-0.3,0.8h-1.1l1.2-3.5H35l1.2,3.5h-1.1l-0.2-0.8H33.7z M34.3,5.6L33.9,7h0.8L34.3,5.6z"/>
		<path class="st1" d="M48.7,4.8v0.5l-2,2.4h2v0.5h-3.1V7.8l2-2.4l-2,0V4.8H48.7z"/>
		<path class="st1" d="M59.3,8.3h-1.1V4.8h1.1V8.3z"/>
		<path class="st1" d="M71.8,8.3h-2.9V4.8h1.1v3h1.8V8.3z"/>
		<path class="st1" d="M82.2,8.3h-1.1V4.8h1.1V8.3z"/>
		<path class="st1" d="M93.1,7.5l-0.3,0.8h-1.1L93,4.8h1.5l1.2,3.5h-1.1l-0.2-0.8H93.1z M93.7,5.6L93.3,7h0.8L93.7,5.6z"/>
		<path class="st1" d="M106.3,4.8l1.4,2.4V4.8h1.1v3.5h-1.1l-1.5-2.2v2.2h-1.1V4.8H106.3z"/>
	</g>
</g>
</svg>
